<svg width="127" height="49" viewBox="0 0 127 49" fill="none" xmlns="http://www.w3.org/2000/svg">
<path fillRule="evenodd" clipRule="evenodd" d="M24.404 0.485443C22.7166 0.485443 21.0686 0.99517 19.6758 1.94784L4.12238 12.5912C2.9986 13.3598 2.07917 14.3909 1.44374 15.5951C0.808308 16.7992 0.476037 18.1401 0.475708 19.5017V39.6445C0.475708 41.8657 1.35806 43.9959 2.92866 45.5665C4.49926 47.1371 6.62946 48.0194 8.85062 48.0194H39.9574C42.1786 48.0194 44.3088 47.1371 45.8794 45.5665C47.45 43.9959 48.3324 41.8657 48.3324 39.6445V19.5017C48.332 18.1401 47.9998 16.7992 47.3643 15.5951C46.7289 14.3909 45.8095 13.3598 44.6857 12.5912L29.1323 1.94784C27.7395 0.99517 26.0914 0.485443 24.404 0.485443ZM13.4305 36.9104C13.2978 36.7777 13.2233 36.5977 13.2233 36.41V32.1638H17.3143L16.2099 36.5816C16.1716 36.7348 16.0832 36.8707 15.9588 36.9678C15.8344 37.0649 15.6811 37.1177 15.5233 37.1177H13.931C13.7433 37.1177 13.5633 37.0431 13.4305 36.9104ZM28.7927 36.8129C25.4079 33.7063 20.2735 31.8751 17.9413 31.52V23.3715C20.2735 23.0164 25.4079 21.1852 28.7927 18.0786V36.8129ZM30.0538 15.7323C30.4076 15.3785 30.8873 15.1795 31.3876 15.1789C31.8879 15.1795 32.3676 15.3785 32.7214 15.7323C33.0752 16.0861 33.2742 16.5658 33.2748 17.0661V37.8254C33.2748 38.3259 33.076 38.8059 32.7221 39.1598C32.3681 39.5137 31.8881 39.7126 31.3876 39.7126C30.8871 39.7126 30.4071 39.5137 30.0531 39.1598C29.6992 38.8059 29.5004 38.3259 29.5004 37.8254V17.0661C29.501 16.5658 29.7 16.0861 30.0538 15.7323ZM17.2336 23.4354H13.2233V31.4561H17.2336V23.4354ZM9.44885 29.333V25.5585C9.44947 24.9957 9.67336 24.456 10.0714 24.058C10.4694 23.66 11.0091 23.4361 11.572 23.4354H12.5156V31.4561H11.572C11.0091 31.4554 10.4694 31.2316 10.0714 30.8335C9.67336 30.4355 9.44947 29.8958 9.44885 29.333ZM36.1056 26.7381H38.4646C38.6523 26.7381 38.8323 26.8126 38.965 26.9453C39.0978 27.0781 39.1723 27.2581 39.1723 27.4458C39.1723 27.6334 39.0978 27.8135 38.965 27.9462C38.8323 28.0789 38.6523 28.1535 38.4646 28.1535H36.1056C35.9179 28.1535 35.7379 28.0789 35.6052 27.9462C35.4725 27.8135 35.3979 27.6334 35.3979 27.4458C35.3979 27.2581 35.4725 27.0781 35.6052 26.9453C35.7379 26.8126 35.9179 26.7381 36.1056 26.7381ZM35.2473 22.9724C35.1519 23.0184 35.0474 23.0424 34.9414 23.0424C34.781 23.0426 34.6252 22.9883 34.4997 22.8883C34.3742 22.7883 34.2864 22.6487 34.2507 22.4922C34.215 22.3358 34.2335 22.1719 34.3032 22.0274C34.3729 21.8828 34.4896 21.7663 34.6342 21.6968L36.7602 20.6745C36.9294 20.5932 37.1239 20.5824 37.3011 20.6445C37.4782 20.7066 37.6234 20.8365 37.7047 21.0057C37.7861 21.1748 37.7969 21.3694 37.7348 21.5465C37.6727 21.7236 37.5427 21.8688 37.3736 21.9502L35.2473 22.9724ZM35.2476 31.9191L37.3736 32.9413C37.5427 33.0227 37.6727 33.1679 37.7348 33.345C37.7969 33.5221 37.7861 33.7167 37.7047 33.8858C37.6234 34.055 37.4782 34.1849 37.3011 34.247C37.1239 34.3091 36.9294 34.2983 36.7602 34.217L34.6342 33.1947C34.4664 33.1126 34.3378 32.9674 34.2766 32.7909C34.2154 32.6143 34.2264 32.4207 34.3074 32.2523C34.3884 32.0839 34.5327 31.9544 34.7088 31.8919C34.885 31.8295 35.0786 31.8393 35.2476 31.9191Z" fill="#3563E9"/>
<path d="M61.1011 21.6796V9.18097H65.7483C66.5983 9.18097 67.3476 9.33755 67.9963 9.65072C68.6562 9.9527 69.1707 10.4001 69.5398 10.9929C69.9089 11.5744 70.0934 12.2847 70.0934 13.1235C70.0934 13.9847 69.8865 14.7173 69.4727 15.3212C69.07 15.9252 68.522 16.3726 67.8286 16.6634L70.6974 21.6796H68.1138L65.0436 16.1936L66.52 17.066H63.3827V21.6796H61.1011ZM63.3827 15.0528H65.7818C66.1956 15.0528 66.5535 14.9745 66.8555 14.8179C67.1575 14.6502 67.3924 14.4209 67.5601 14.1301C67.7279 13.8393 67.8118 13.5038 67.8118 13.1235C67.8118 12.732 67.7279 12.3965 67.5601 12.1169C67.3924 11.8261 67.1575 11.6024 66.8555 11.4458C66.5535 11.2781 66.1956 11.1942 65.7818 11.1942H63.3827V15.0528ZM74.7596 21.8809C74.055 21.8809 73.4398 21.7243 72.9141 21.4112C72.3997 21.098 72.0026 20.6618 71.723 20.1026C71.4546 19.5434 71.3203 18.8891 71.3203 18.1397V12.5531H73.5181V17.9552C73.5181 18.3355 73.5908 18.671 73.7362 18.9618C73.8928 19.2414 74.1109 19.4651 74.3905 19.6329C74.6813 19.7894 75.0056 19.8677 75.3635 19.8677C75.7214 19.8677 76.0402 19.7894 76.3198 19.6329C76.5994 19.4651 76.8175 19.2358 76.9741 18.945C77.1307 18.6542 77.209 18.3075 77.209 17.9049V12.5531H79.4067V21.6796H77.3264V19.8845L77.511 20.2033C77.2984 20.7625 76.9461 21.1819 76.454 21.4615C75.9731 21.7411 75.4083 21.8809 74.7596 21.8809ZM83.7145 21.8809C83.077 21.8809 82.5234 21.7747 82.0536 21.5622C81.5839 21.3497 81.2204 21.0477 80.9632 20.6562C80.7059 20.2536 80.5773 19.7894 80.5773 19.2638C80.5773 18.7605 80.6891 18.3131 80.9128 17.9216C81.1365 17.519 81.4832 17.1835 81.953 16.915C82.4227 16.6466 83.0155 16.4565 83.7313 16.3446L86.7176 15.8581V17.5358L84.1507 17.972C83.7145 18.0503 83.3902 18.1901 83.1777 18.3914C82.9652 18.5927 82.8589 18.8555 82.8589 19.1799C82.8589 19.493 82.9764 19.7447 83.2112 19.9348C83.4573 20.1138 83.7593 20.2033 84.1172 20.2033C84.5757 20.2033 84.9784 20.1082 85.3251 19.9181C85.683 19.7167 85.957 19.4427 86.1472 19.096C86.3485 18.7493 86.4491 18.369 86.4491 17.9552V15.6064C86.4491 15.215 86.2925 14.8906 85.9794 14.6334C85.6774 14.365 85.2748 14.2308 84.7715 14.2308C84.3017 14.2308 83.8823 14.3594 83.5132 14.6166C83.1553 14.8627 82.8925 15.1926 82.7247 15.6064L80.9296 14.7341C81.1085 14.2531 81.3882 13.8393 81.7684 13.4926C82.1599 13.1347 82.6185 12.8551 83.1441 12.6537C83.6698 12.4524 84.2402 12.3518 84.8553 12.3518C85.6047 12.3518 86.2646 12.4916 86.835 12.7712C87.4054 13.0396 87.8472 13.4199 88.1604 13.912C88.4847 14.3929 88.6469 14.9577 88.6469 15.6064V21.6796H86.5666V20.1194L87.0363 20.0858C86.8014 20.4773 86.5218 20.8072 86.1975 21.0757C85.8731 21.3329 85.504 21.5342 85.0902 21.6796C84.6764 21.8138 84.2178 21.8809 83.7145 21.8809ZM90.1749 21.6796V12.5531H92.2384V14.3482L92.0706 14.0294C92.2831 13.4814 92.6299 13.0676 93.1108 12.788C93.6029 12.4972 94.1733 12.3518 94.822 12.3518C95.4931 12.3518 96.0859 12.4972 96.6003 12.788C97.126 13.0788 97.5342 13.487 97.825 14.0127C98.1158 14.5271 98.2612 15.1255 98.2612 15.8078V21.6796H96.0635V16.3278C96.0635 15.9252 95.9852 15.5785 95.8286 15.2877C95.672 14.9969 95.4539 14.7732 95.1743 14.6166C94.9059 14.4489 94.5871 14.365 94.2181 14.365C93.8601 14.365 93.5414 14.4489 93.2618 14.6166C92.9822 14.7732 92.7641 14.9969 92.6075 15.2877C92.4509 15.5785 92.3726 15.9252 92.3726 16.3278V21.6796H90.1749ZM104.045 25.3705C103.363 25.3705 102.731 25.2586 102.15 25.035C101.568 24.8113 101.065 24.4981 100.64 24.0955C100.226 23.704 99.9239 23.2398 99.7338 22.703L101.781 21.9313C101.915 22.3563 102.178 22.6974 102.569 22.9546C102.972 23.2231 103.464 23.3573 104.045 23.3573C104.493 23.3573 104.884 23.2734 105.22 23.1056C105.566 22.9379 105.835 22.6918 106.025 22.3675C106.215 22.0543 106.31 21.674 106.31 21.2266V19.1463L106.73 19.6496C106.417 20.1977 105.997 20.6115 105.471 20.8911C104.946 21.1707 104.347 21.3105 103.676 21.3105C102.826 21.3105 102.066 21.1148 101.395 20.7233C100.724 20.3319 100.198 19.795 99.8177 19.1128C99.4374 18.4305 99.2473 17.6644 99.2473 16.8144C99.2473 15.9532 99.4374 15.187 99.8177 14.516C100.198 13.8449 100.718 13.3192 101.378 12.939C102.038 12.5475 102.787 12.3518 103.626 12.3518C104.308 12.3518 104.907 12.4972 105.421 12.788C105.947 13.0676 106.383 13.4758 106.73 14.0127L106.428 14.5663V12.5531H108.508V21.2266C108.508 22.0207 108.312 22.731 107.921 23.3573C107.541 23.9836 107.015 24.4757 106.344 24.8336C105.684 25.1915 104.918 25.3705 104.045 25.3705ZM103.945 19.2805C104.414 19.2805 104.823 19.1799 105.169 18.9786C105.527 18.7661 105.807 18.4753 106.008 18.1062C106.21 17.7371 106.31 17.3121 106.31 16.8311C106.31 16.3614 106.204 15.942 105.991 15.5729C105.79 15.1926 105.511 14.8962 105.153 14.6837C104.806 14.4712 104.403 14.365 103.945 14.365C103.486 14.365 103.072 14.4712 102.703 14.6837C102.334 14.8962 102.043 15.1926 101.831 15.5729C101.63 15.942 101.529 16.3614 101.529 16.8311C101.529 17.3009 101.63 17.7203 101.831 18.0894C102.043 18.4585 102.329 18.7493 102.686 18.9618C103.056 19.1743 103.475 19.2805 103.945 19.2805Z" fill="#3563E9"/>
<path d="M61.1011 41.2524V28.7538H65.765C66.6151 28.7538 67.3644 28.9104 68.0131 29.2235C68.673 29.5255 69.1875 29.9729 69.5566 30.5657C69.9257 31.1473 70.1102 31.8575 70.1102 32.6963C70.1102 33.524 69.9201 34.2342 69.5398 34.827C69.1707 35.4086 68.6618 35.8559 68.0131 36.1691C67.3644 36.4823 66.6151 36.6388 65.765 36.6388H63.3827V41.2524H61.1011ZM63.3827 34.6256H65.7986C66.2124 34.6256 66.5703 34.5474 66.8723 34.3908C67.1743 34.223 67.4092 33.9937 67.5769 33.7029C67.7447 33.4121 67.8286 33.0766 67.8286 32.6963C67.8286 32.3049 67.7447 31.9693 67.5769 31.6897C67.4092 31.3989 67.1743 31.1752 66.8723 31.0187C66.5703 30.8509 66.2124 30.767 65.7986 30.767H63.3827V34.6256ZM74.5466 41.4538C73.842 41.4538 73.2268 41.2972 72.7012 40.984C72.1867 40.6708 71.7896 40.2347 71.51 39.6754C71.2416 39.1162 71.1074 38.4619 71.1074 37.7126V32.1259H73.3051V37.528C73.3051 37.9083 73.3778 38.2438 73.5232 38.5346C73.6798 38.8142 73.8979 39.0379 74.1775 39.2057C74.4683 39.3623 74.7926 39.4406 75.1505 39.4406C75.5085 39.4406 75.8272 39.3623 76.1068 39.2057C76.3864 39.0379 76.6045 38.8086 76.7611 38.5178C76.9177 38.227 76.996 37.8803 76.996 37.4777V32.1259H79.1937V41.2524H77.1134V39.4573L77.298 39.7761C77.0855 40.3353 76.7332 40.7547 76.241 41.0343C75.7601 41.314 75.1953 41.4538 74.5466 41.4538ZM85.7161 41.4538C85.0562 41.4538 84.4466 41.3251 83.8874 41.0679C83.3394 40.7995 82.9032 40.4192 82.5788 39.9271L82.7969 39.4909V41.2524H80.7334V28.5525H82.9311V33.9378L82.5956 33.4848C82.9088 32.9927 83.3338 32.6124 83.8706 32.344C84.4075 32.0644 85.0282 31.9246 85.7328 31.9246C86.594 31.9246 87.3714 32.1371 88.0648 32.5621C88.7582 32.9871 89.3063 33.5575 89.7089 34.2733C90.1227 34.9891 90.3297 35.7944 90.3297 36.6892C90.3297 37.5728 90.1283 38.378 89.7257 39.105C89.3231 39.832 88.775 40.408 88.0816 40.833C87.3881 41.2468 86.5996 41.4538 85.7161 41.4538ZM85.4644 39.4406C85.9677 39.4406 86.4151 39.3231 86.8066 39.0882C87.198 38.8534 87.5 38.529 87.7125 38.1152C87.9362 37.7014 88.048 37.226 88.048 36.6892C88.048 36.1523 87.9362 35.6826 87.7125 35.2799C87.5 34.8661 87.198 34.5418 86.8066 34.3069C86.4151 34.0608 85.9677 33.9378 85.4644 33.9378C84.9835 33.9378 84.5473 34.0552 84.1558 34.2901C83.7756 34.525 83.4736 34.8549 83.2499 35.2799C83.0374 35.6938 82.9311 36.1635 82.9311 36.6892C82.9311 37.226 83.0374 37.7014 83.2499 38.1152C83.4736 38.529 83.7756 38.8534 84.1558 39.0882C84.5473 39.3231 84.9835 39.4406 85.4644 39.4406ZM91.5019 41.2524V28.5525H93.6997V41.2524H91.5019ZM102.661 41.2524V28.5525H104.859V36.8737L104.02 36.6221L108.315 32.1259H111.049L107.677 35.8L111.117 41.2524H108.6L105.614 36.5214L106.922 36.253L104.171 39.2057L104.859 37.8635V41.2524H102.661Z" fill="#3563E9"/>
<path d="M95.1941 36.4815V40.6789H101.485V36.4815C101.485 35.9914 101.285 35.5446 100.96 35.2193C100.634 34.8939 100.187 34.6934 99.6973 34.6934H96.9822C96.4921 34.6934 96.0454 34.8939 95.7199 35.2193C95.7199 35.2193 95.7199 35.2193 95.7199 35.2193M95.1941 36.4815H94.8446C94.8446 35.894 95.0852 35.3597 95.4728 34.9721L95.7199 35.2193M95.1941 36.4815C95.1941 35.9914 95.3946 35.5446 95.7199 35.2193M95.1941 36.4815L95.7199 35.2193M97.007 30.0472L97.007 30.0472C97.3484 29.7058 97.8192 29.4951 98.3398 29.4951C98.8604 29.4951 99.3312 29.7058 99.6726 30.0472C100.014 30.3886 100.225 30.8594 100.225 31.38C100.225 31.9006 100.014 32.3714 99.6726 32.7128C99.3312 33.0543 98.8604 33.2649 98.3398 33.2649C97.8192 33.2649 97.3484 33.0543 97.007 32.7128C96.6656 32.3714 96.4549 31.9006 96.4549 31.38C96.4549 30.8594 96.6655 30.3886 97.007 30.0472Z" fill="#3563E9" stroke="#3563E9" stroke-width="0.699029"/>
</svg>
