<svg width="26" height="26" viewBox="0 0 26 26" fill="none" xmlns="http://www.w3.org/2000/svg">
<g clip-path="url(#clip0_215_6649)">
<path d="M13.2832 13.5192C16.8993 13.5192 19.8553 10.5632 19.8553 6.94708C19.8553 3.33098 16.8993 0.375 13.2832 0.375C9.66714 0.375 6.71122 3.33098 6.71122 6.94708C6.71122 10.5632 9.6672 13.5192 13.2832 13.5192ZM24.562 18.7711C24.3898 18.3406 24.1602 17.9388 23.9019 17.5657C22.5817 15.6141 20.5442 14.3227 18.2482 14.007C17.9613 13.9783 17.6456 14.0357 17.416 14.2079C16.2106 15.0976 14.7757 15.5567 13.2833 15.5567C11.7909 15.5567 10.356 15.0976 9.15062 14.2079C8.92101 14.0357 8.60531 13.9496 8.31835 14.007C6.02243 14.3227 3.95612 15.6141 2.66468 17.5657C2.40639 17.9388 2.17677 18.3693 2.00462 18.7711C1.91854 18.9433 1.94721 19.1442 2.03329 19.3164C2.26291 19.7181 2.54987 20.12 2.80816 20.4643C3.20993 21.0096 3.64043 21.4975 4.12833 21.9567C4.5301 22.3584 4.98927 22.7315 5.4485 23.1046C7.71569 24.7979 10.4421 25.6875 13.2546 25.6875C16.0671 25.6875 18.7935 24.7978 21.0607 23.1046C21.5199 22.7602 21.9791 22.3584 22.3809 21.9567C22.8401 21.4975 23.2993 21.0096 23.7011 20.4643C23.988 20.0912 24.2464 19.7181 24.4759 19.3164C24.6194 19.1442 24.648 18.9432 24.562 18.7711Z" fill="#262626"/>
</g>
<defs>
<clipPath id="clip0_215_6649">
<rect width="25.3125" height="25.3125" fill="white" transform="translate(0.625 0.375)"/>
</clipPath>
</defs>
</svg>
