<svg xmlns="http://www.w3.org/2000/svg" width="24" height="24" fill="none" viewBox="0 0 24 24"><g id="vuesax/broken/back-square"><g id="back-square"><g id="Group"><path id="Vector" stroke="#90A3BF" stroke-linecap="round" stroke-linejoin="round" stroke-miterlimit="10" stroke-width="1.5" d="M8.9999 15.38H13.9199C15.6199 15.38 16.9999 14 16.9999 12.3C16.9999 10.6 15.6199 9.21997 13.9199 9.21997H7.1499"/><g id="Vector_2"><path fill="#90A3BF" d="M8.57 10.77L7 9.18999L8.57 7.62"/><path stroke="#90A3BF" stroke-linecap="round" stroke-linejoin="round" stroke-width="1.5" d="M8.57 10.77L7 9.18999L8.57 7.62"/></g></g><path id="Vector_3" stroke="#90A3BF" stroke-linecap="round" stroke-linejoin="round" stroke-width="1.5" d="M2 14V15C2 20 4 22 9 22H15C20 22 22 20 22 15V9C22 4 20 2 15 2H9C4 2 2 4 2 9"/></g></g></svg>